<svg width="16" height="16" viewBox="0 0 16 16" fill="none" xmlns="http://www.w3.org/2000/svg">
<g clip-path="url(#clip0_1_675)">
<path d="M14.9404 0H4.01105C3.45036 0 2.99536 0.454787 2.99536 1.01597V1.97334H4.06153V1.06617H14.8899V11.8943H14.071V12.9605H14.9404C15.5011 12.9605 15.9561 12.5057 15.9561 11.9446V1.01597C15.9561 0.454787 15.5011 0 14.9404 0Z" fill="#0984E3"/>
<path d="M11.9891 3.03943H1.05969C0.499063 3.03943 0.0440674 3.49415 0.0440674 4.0554V14.9839C0.0440674 15.5452 0.499063 15.9999 1.05969 15.9999H11.9891C12.5498 15.9999 13.0048 15.5452 13.0048 14.9839V4.0554C13.0048 3.49415 12.5498 3.03943 11.9891 3.03943ZM11.9386 14.9337H1.11024V4.10563H11.9386V14.9337H11.9386Z" fill="#0984E3"/>
<path d="M1.9359 14.2811L4.40243 14.2819C4.47433 14.2819 4.53939 14.2384 4.56695 14.172C4.59458 14.1057 4.57898 14.0291 4.52847 13.9781L3.67258 13.122L10.1134 6.64654L10.9687 7.50215C11.0197 7.5529 11.0963 7.56825 11.1624 7.54063C11.229 7.51307 11.2723 7.44822 11.2723 7.37639L11.2728 4.91038C11.2728 4.81225 11.1932 4.73261 11.0948 4.73261L8.62874 4.73181C8.55684 4.73181 8.49178 4.77524 8.46422 4.84166C8.43659 4.90801 8.45173 4.98455 8.50273 5.03555L9.3596 5.89273L2.91877 12.3681L2.06187 11.5115C2.01083 11.4607 1.93482 11.4454 1.86816 11.473C1.80153 11.5006 1.75838 11.5654 1.75838 11.6372V14.1033C1.75841 14.2014 1.83805 14.2811 1.9359 14.2811Z" fill="#0984E3"/>
</g>
<defs>
<clipPath id="clip0_1_675">
<rect width="16" height="16" fill="white"/>
</clipPath>
</defs>
</svg>
