<svg width="20" height="20" viewBox="0 0 20 20" fill="none" xmlns="http://www.w3.org/2000/svg">
<g clip-path="url(#clip0_1_263)">
<path d="M18.6755 0H5.01382C4.31295 0 3.7442 0.568483 3.7442 1.26996V2.46667H5.07691V1.33271H18.6124V14.8679H17.5888V16.2006H18.6755C19.3763 16.2006 19.9451 15.6322 19.9451 14.9307V1.26996C19.9451 0.568483 19.3763 0 18.6755 0Z" fill="#435261"/>
<path d="M14.9864 3.79925H1.32461C0.623829 3.79925 0.0550842 4.36764 0.0550842 5.06921V18.7299C0.0550842 19.4314 0.623829 19.9998 1.32461 19.9998H14.9864C15.6872 19.9998 16.256 19.4314 16.256 18.7299V5.06921C16.256 4.36764 15.6872 3.79925 14.9864 3.79925ZM14.9233 18.6671H1.3878V5.132H14.9232V18.6671H14.9233Z" fill="#435261"/>
<path d="M2.41988 17.8513L5.50304 17.8523C5.59291 17.8523 5.67423 17.798 5.70868 17.715C5.74322 17.6321 5.72372 17.5364 5.66058 17.4726L4.59073 16.4025L12.6417 8.30818L13.7109 9.37769C13.7747 9.44113 13.8703 9.46032 13.953 9.42578C14.0363 9.39133 14.0904 9.31027 14.0904 9.22049L14.091 6.13798C14.091 6.01532 13.9914 5.91577 13.8685 5.91577L10.7859 5.91476C10.696 5.91476 10.6147 5.96905 10.5803 6.05208C10.5457 6.13502 10.5647 6.23069 10.6284 6.29444L11.6995 7.36591L3.64846 15.4602L2.57733 14.3894C2.51354 14.3259 2.41852 14.3067 2.33519 14.3412C2.25191 14.3757 2.19797 14.4568 2.19797 14.5465V17.6291C2.19801 17.7518 2.29756 17.8513 2.41988 17.8513Z" fill="#435261"/>
</g>
<defs>
<clipPath id="clip0_1_263">
<rect width="20" height="20" fill="white"/>
</clipPath>
</defs>
</svg>
