<svg width="132" height="30" viewBox="0 0 132 30" fill="none" xmlns="http://www.w3.org/2000/svg">
<path d="M0.608855 15.5984L0.610724 15.6005L11.4571 27.3425C12.2697 28.2221 13.584 28.2188 14.3928 27.3348C15.2015 26.4509 15.1984 25.0212 14.3858 24.1414L7.10357 16.2581L37.9242 16.2581C39.0707 16.2581 40 15.2471 40 14C40 12.7529 39.0707 11.7419 37.9242 11.7419L7.10367 11.7419L14.3857 3.85858C15.1983 2.97883 15.2014 1.54914 14.3927 0.665221C13.5839 -0.218925 12.2695 -0.221975 11.457 0.657542L0.610617 12.3995L0.608748 12.4016C-0.204233 13.2843 -0.201635 14.7186 0.608855 15.5984Z" fill="#435261"/>
<rect x="64" width="4" height="30" rx="2" fill="#435261"/>
<path d="M131.391 13.4016L131.389 13.3995L120.543 1.65754C119.73 0.777912 118.416 0.781185 117.607 1.66522C116.798 2.54914 116.802 3.97883 117.614 4.85857L124.896 12.7419H94.0758C92.9293 12.7419 92 13.7529 92 15C92 16.2471 92.9293 17.2581 94.0758 17.2581H124.896L117.614 25.1414C116.802 26.0212 116.799 27.4509 117.607 28.3348C118.416 29.2189 119.731 29.222 120.543 28.3425L131.389 16.6005L131.391 16.5984C132.204 15.7157 132.202 14.2814 131.391 13.4016Z" fill="#435261"/>
</svg>
