<svg width="20" height="20" viewBox="0 0 20 20" fill="none" xmlns="http://www.w3.org/2000/svg">
<g clip-path="url(#clip0_1_270)">
<path d="M18.75 9.96301H1.25C0.56082 9.96301 0 10.5238 0 11.213C0 11.9022 0.56082 12.463 1.25 12.463H18.75C19.4392 12.463 20 11.9022 20 11.213C20 10.5238 19.4392 9.96301 18.75 9.96301Z" fill="#435261"/>
<path d="M18.865 11.6454C18.6391 11.5821 18.4125 11.7104 18.35 11.9321L18.3175 12.0463H1.68327L1.64995 11.9321C1.58745 11.7104 1.35913 11.5838 1.13495 11.6454C0.913274 11.7087 0.785774 11.9396 0.849133 12.1604L1.99745 16.1804C2.35327 17.4262 3.50663 18.2962 4.80163 18.2962H15.1975C16.4933 18.2962 17.6458 17.4262 18.0016 16.1804L19.15 12.1604C19.2141 11.9396 19.0858 11.7087 18.865 11.6454ZM4.80245 16.6296C4.24745 16.6296 3.75245 16.2571 3.60077 15.7229L3.05995 13.8279C2.99663 13.6062 3.12495 13.3762 3.34577 13.3129C3.56909 13.2496 3.79827 13.3787 3.86077 13.5996L4.40159 15.4946C4.45327 15.6721 4.61741 15.7971 4.80241 15.7971C5.03241 15.7971 5.21909 15.9837 5.21909 16.2137C5.21913 16.4437 5.03245 16.6296 4.80245 16.6296Z" fill="#435261"/>
<path d="M5.6025 17.5062C5.39668 17.4054 5.1475 17.4862 5.04332 17.6929L4.21 19.3596C4.1075 19.5654 4.19082 19.8154 4.39668 19.9187C4.4575 19.9487 4.52086 19.9629 4.58336 19.9629C4.73586 19.9629 4.88254 19.8787 4.95586 19.7321L5.78918 18.0654C5.89168 17.8595 5.80832 17.6095 5.6025 17.5062Z" fill="#435261"/>
<path d="M15.79 19.3606L14.9566 17.6939C14.8533 17.4872 14.6033 17.4047 14.3975 17.5072C14.1916 17.6105 14.1083 17.8605 14.2108 18.0664L15.0441 19.7331C15.1174 19.8789 15.2641 19.9631 15.4166 19.9631C15.4791 19.9631 15.5424 19.9489 15.6033 19.9197C15.8091 19.8164 15.8925 19.5664 15.79 19.3606Z" fill="#435261"/>
<path d="M16.7375 0.0369797C16.3125 0.0369797 15.9125 0.2028 15.6117 0.503659L14.2892 1.82616C14.1267 1.98866 14.1267 2.25284 14.2892 2.41534C14.4517 2.57784 14.7159 2.57784 14.8784 2.41534L16.2008 1.09366C16.3433 0.950339 16.5341 0.871159 16.7416 0.871159C17.16 0.871159 17.5 1.21116 17.5 1.62948V10.3795C17.5 10.6095 17.6866 10.7962 17.9166 10.7962C18.1466 10.7962 18.3333 10.6095 18.3341 10.3787V1.62866C18.3342 0.751159 17.6208 0.0369797 16.7375 0.0369797Z" fill="#435261"/>
<path d="M15.295 2.24303L14.4617 1.40971C14.3667 1.31471 14.2342 1.27053 14.0992 1.29303L12.0159 1.63471C11.8626 1.65971 11.7367 1.76803 11.6876 1.91471C11.6384 2.06139 11.6759 2.22471 11.7842 2.33553L14.2842 4.91053C14.3634 4.99303 14.4726 5.03721 14.5826 5.03721C14.6217 5.03721 14.6617 5.03139 14.7009 5.01971C14.8492 4.97639 14.9617 4.85389 14.9917 4.70221L15.4084 2.61889C15.4358 2.48303 15.3933 2.34218 15.295 2.24303Z" fill="#435261"/>
<path d="M9.8775 5.08548C9.715 4.92298 9.45082 4.92298 9.28832 5.08548L8.455 5.9188C8.2925 6.0813 8.2925 6.34548 8.455 6.50798C8.53668 6.5888 8.64332 6.62966 8.75 6.62966C8.85668 6.62966 8.96332 6.58884 9.04418 6.50798L9.8775 5.67466C10.04 5.51212 10.04 5.24798 9.8775 5.08548Z" fill="#435261"/>
<path d="M11.5442 6.75206C11.3817 6.58956 11.1175 6.58956 10.955 6.75206L10.1217 7.58538C9.95919 7.74788 9.95919 8.01206 10.1217 8.17456C10.2034 8.25538 10.31 8.29624 10.4167 8.29624C10.5234 8.29624 10.63 8.25542 10.7109 8.17456L11.5442 7.34124C11.7067 7.17874 11.7067 6.91456 11.5442 6.75206Z" fill="#435261"/>
<path d="M12.3775 4.25206C12.215 4.08956 11.9508 4.08956 11.7883 4.25206L10.955 5.08538C10.7925 5.24788 10.7925 5.51206 10.955 5.67456C11.0367 5.75538 11.1433 5.79624 11.25 5.79624C11.3567 5.79624 11.4633 5.75542 11.5442 5.67456L12.3775 4.84124C12.54 4.67874 12.54 4.41456 12.3775 4.25206Z" fill="#435261"/>
</g>
<defs>
<clipPath id="clip0_1_270">
<rect width="20" height="20" fill="white"/>
</clipPath>
</defs>
</svg>
