<svg width="16" height="16" viewBox="0 0 16 16" fill="none" xmlns="http://www.w3.org/2000/svg">
<path d="M1.32775 8.95164H14.6721C15.2221 8.95164 15.668 8.5058 15.668 7.9558C15.668 7.4058 15.2221 6.95996 14.6721 6.95996H1.32775C0.777753 6.95996 0.331909 7.4058 0.331909 7.9558C0.331878 8.5058 0.777753 8.95164 1.32775 8.95164Z" fill="#0984E3"/>
<path d="M8.99584 4.81201C8.70519 4.81201 8.46875 5.04845 8.46875 5.33911V6.02245H12.5481V5.33911C12.5481 5.04845 12.3117 4.81201 12.021 4.81201H8.99584Z" fill="#0984E3"/>
<path d="M2.51442 5.3391C2.51442 4.53151 3.17142 3.87451 3.97901 3.87451H7.00417C7.38848 3.87451 7.73848 4.02351 8.00001 4.26651C8.26154 4.02351 8.61154 3.87451 8.99586 3.87451H12.021C12.8286 3.87451 13.4856 4.53151 13.4856 5.3391V6.02245H15.0071V2.7937C15.0071 2.2437 14.5613 1.79785 14.0113 1.79785H1.98876C1.43876 1.79785 0.99292 2.2437 0.99292 2.7937V6.02245H2.51442V5.3391Z" fill="#0984E3"/>
<path d="M3.97906 4.81201C3.6884 4.81201 3.45197 5.04845 3.45197 5.33911V6.02245H7.53131V5.33911C7.53131 5.04845 7.29487 4.81201 7.00422 4.81201H3.97906Z" fill="#0984E3"/>
<path d="M0 9.88916V14.2022H0.9375V12.4929H15.0625V14.2022H16V9.88916H0Z" fill="#0984E3"/>
</svg>
