<svg width="20" height="20" viewBox="0 0 20 20" fill="none" xmlns="http://www.w3.org/2000/svg">
<path d="M1.65972 11.1895H18.3402C19.0277 11.1895 19.585 10.6322 19.585 9.94473C19.585 9.25723 19.0277 8.69993 18.3402 8.69993H1.65972C0.972222 8.69993 0.414917 9.25723 0.414917 9.94473C0.414878 10.6322 0.972222 11.1895 1.65972 11.1895Z" fill="#435261"/>
<path d="M11.2448 6.01505C10.8815 6.01505 10.5859 6.3106 10.5859 6.67392V7.5281H15.6851V6.67392C15.6851 6.3106 15.3896 6.01505 15.0263 6.01505H11.2448Z" fill="#435261"/>
<path d="M3.14296 6.67386C3.14296 5.66437 3.96421 4.84312 4.97371 4.84312H8.75515C9.23554 4.84312 9.67304 5.02937 9.99996 5.33312C10.3269 5.02937 10.7644 4.84312 11.2448 4.84312H15.0262C16.0357 4.84312 16.8569 5.66437 16.8569 6.67386V7.52804H18.7589V3.4921C18.7589 2.8046 18.2015 2.2473 17.5141 2.2473H2.48589C1.79839 2.2473 1.24109 2.8046 1.24109 3.4921V7.52804H3.14296V6.67386Z" fill="#435261"/>
<path d="M4.97381 6.01505C4.61049 6.01505 4.31494 6.3106 4.31494 6.67392V7.5281H9.41412V6.67392C9.41412 6.3106 9.11857 6.01505 8.75525 6.01505H4.97381Z" fill="#435261"/>
<path d="M0 12.3615V17.7528H1.17188V15.6162H18.8281V17.7528H20V12.3615H0Z" fill="#435261"/>
</svg>
