<svg width="60" height="60" viewBox="0 0 60 60" fill="none" xmlns="http://www.w3.org/2000/svg">
<circle cx="30" cy="30" r="30" fill="#0984E3"/>
<g clip-path="url(#clip0_1_3379)">
<path d="M40.0742 33.7533C38.6049 33.7533 37.1621 33.5234 35.7949 33.0716C35.125 32.8431 34.3014 33.0528 33.8926 33.4727L31.194 35.5098C28.0644 33.8393 26.1367 31.9121 24.4889 28.8061L26.4661 26.1778C26.9798 25.6648 27.1641 24.9154 26.9433 24.2123C26.4896 22.8379 26.2591 21.3959 26.2591 19.9259C26.2591 18.8639 25.3952 18 24.3333 18H19.9258C18.8639 18 18 18.8639 18 19.9258C18 32.0977 27.9024 42 40.0742 42C41.1361 42 42.0001 41.1361 42.0001 40.0742V35.679C42 34.6172 41.1361 33.7533 40.0742 33.7533Z" fill="white"/>
</g>
<defs>
<clipPath id="clip0_1_3379">
<rect width="24" height="24" fill="white" transform="translate(18 18)"/>
</clipPath>
</defs>
</svg>
