<svg width="20" height="20" viewBox="0 0 20 20" fill="none" xmlns="http://www.w3.org/2000/svg">
<path d="M17.6562 5.89844V14.1016H8.20312V5.89844C6.91078 5.89844 5.85938 6.94984 5.85938 8.24219V17.6172H7.03125V16.4453H18.8281V17.6172H20V8.24219C20 6.94984 18.9486 5.89844 17.6562 5.89844Z" fill="#435261"/>
<path d="M1.17188 12.9297H0V17.6172H1.17188V12.9297Z" fill="#435261"/>
<path d="M4.6875 12.9297H3.51562V17.6172H4.6875V12.9297Z" fill="#435261"/>
<path d="M2.92969 9.41406V8.24219H1.75781V9.41406H0V11.7578H4.6875V9.41406H2.92969Z" fill="#435261"/>
<path d="M4.27969 2.38281H0.407812L0 6.41574V7.07031H4.6875V6.41574L4.27969 2.38281Z" fill="#435261"/>
<path d="M15.3125 10.5859H10.5469C9.9007 10.5859 9.375 11.1116 9.375 11.7578V12.9297H16.4844V11.7578C16.4844 11.1116 15.9587 10.5859 15.3125 10.5859Z" fill="#435261"/>
<path d="M15.3125 3.55469H10.5469C9.9007 3.55469 9.375 4.08039 9.375 4.72656V9.72937C9.72004 9.52926 10.1201 9.41406 10.5469 9.41406H15.3125C15.7393 9.41406 16.1393 9.52926 16.4844 9.72937V4.72656C16.4844 4.08039 15.9587 3.55469 15.3125 3.55469Z" fill="#435261"/>
</svg>
