<svg width="17" height="22" viewBox="0 0 17 22" fill="none" xmlns="http://www.w3.org/2000/svg">
<path d="M8.5 0C3.80534 0 0 3.74719 0 8.36888C0 11.1124 2.99488 16.3209 5.42904 20.1012C7.05935 22.6329 9.94065 22.6329 11.571 20.1012C14.0051 16.3203 17 11.1124 17 8.36888C17 3.74664 13.1947 0 8.5 0ZM8.5 12.3044C6.16563 12.3044 4.27288 10.4409 4.27288 8.14252C4.27288 5.84416 6.16563 3.98061 8.5 3.98061C10.8344 3.98061 12.7271 5.84416 12.7271 8.14252C12.7271 10.4409 10.8344 12.3044 8.5 12.3044Z" fill="#0984E3"/>
</svg>
