<svg width="60" height="60" viewBox="0 0 60 60" fill="none" xmlns="http://www.w3.org/2000/svg">
<circle cx="30" cy="30" r="30" fill="#0984E3"/>
<path d="M29.5 18C24.253 18 20 22.0878 20 27.1297C20 30.1226 23.3472 35.8046 26.0677 39.9285C27.8899 42.6905 31.1101 42.6905 32.9323 39.9285C35.6528 35.804 39 30.1226 39 27.1297C39 22.0872 34.747 18 29.5 18ZM29.5 31.423C26.891 31.423 24.7756 29.3901 24.7756 26.8827C24.7756 24.3754 26.891 22.3425 29.5 22.3425C32.109 22.3425 34.2244 24.3754 34.2244 26.8827C34.2244 29.3901 32.109 31.423 29.5 31.423Z" fill="white"/>
</svg>
