<svg width="17" height="23" viewBox="0 0 17 23" fill="none" xmlns="http://www.w3.org/2000/svg">
<path d="M8.5 0.202637C3.80534 0.202637 0 3.94982 0 8.57152C0 11.315 2.99488 16.5235 5.42904 20.3038C7.05935 22.8356 9.94065 22.8356 11.571 20.3038C14.0051 16.523 17 11.315 17 8.57152C17 3.94928 13.1947 0.202637 8.5 0.202637ZM8.5 12.5071C6.16563 12.5071 4.27288 10.6435 4.27288 8.34516C4.27288 6.04679 6.16563 4.18324 8.5 4.18324C10.8344 4.18324 12.7271 6.04679 12.7271 8.34516C12.7271 10.6435 10.8344 12.5071 8.5 12.5071Z" fill="#435261"/>
</svg>
