<svg width="32" height="57" viewBox="0 0 32 57" fill="none" xmlns="http://www.w3.org/2000/svg">
<g clip-path="url(#clip0_1_3389)">
<path d="M27.1148 42.1466V15.9984L22.1967 17.7313V6.43648L9.80328 0V19.5261L12.3607 18.6287V4.3013L19.6066 8.13844V18.6287L17.2787 19.4642V9.56189L14.7213 8.16938V20.3306L4.91803 23.7964V34.3485L0 32.6156V56.9691H17.2787V43.8485L14.7213 42.9511V54.4007H2.55738V36.1124L9.80328 38.6498V49.2329H7.47541V40.4137L4.91803 39.5163V51.8323H12.3934V39.5782L29.4426 45.5814V54.4316H22.1967V48.2117L24.5246 49.0472V51.8632H27.082V47.3453L19.6066 44.715V47.3143V57.031H32V43.9104L27.1148 42.1466ZM24.5246 41.2492L17.2787 38.7117V27.2003L19.6066 26.3648V37.0098L22.1639 37.9072V22.899L14.6885 25.5293V37.8143L7.44262 35.2769V25.4674L9.77049 24.6319V33.544L12.3279 34.4414V23.7655L24.5246 19.4951V41.2492Z" fill="#0984E3"/>
</g>
<defs>
<clipPath id="clip0_1_3389">
<rect width="32" height="57" fill="white"/>
</clipPath>
</defs>
</svg>
