<svg width="60" height="60" viewBox="0 0 60 60" fill="none" xmlns="http://www.w3.org/2000/svg">
<circle cx="30" cy="30" r="30" fill="#0984E3"/>
<g clip-path="url(#clip0_1_3371)">
<path d="M26.75 35.6121V40.2501C26.75 40.5741 26.958 40.8611 27.266 40.9631C27.343 40.9881 27.422 41.0001 27.5 41.0001C27.734 41.0001 27.96 40.8901 28.104 40.6941L30.817 37.0021L26.75 35.6121Z" fill="white"/>
<path d="M41.6851 18.1388C41.4551 17.9758 41.1531 17.9538 40.9031 18.0848L18.403 29.8348C18.137 29.9738 17.98 30.2578 18.002 30.5568C18.025 30.8568 18.224 31.1128 18.507 31.2098L24.762 33.3478L38.0831 21.9578L27.775 34.3768L38.2581 37.9598C38.3361 37.9858 38.4181 37.9998 38.5001 37.9998C38.6361 37.9998 38.7711 37.9628 38.8901 37.8908C39.0801 37.7748 39.2091 37.5798 39.2421 37.3608L41.9921 18.8608C42.0331 18.5808 41.9151 18.3028 41.6851 18.1388Z" fill="white"/>
</g>
<defs>
<clipPath id="clip0_1_3371">
<rect width="24" height="24" fill="white" transform="translate(18 18)"/>
</clipPath>
</defs>
</svg>
