<svg width="36" height="36" viewBox="0 0 36 36" fill="none" xmlns="http://www.w3.org/2000/svg">
<path d="M24.5432 26.2902L27.5033 24.6932C27.1849 24.4331 26.7335 24.3065 26.3699 24.4877L24.0925 25.7148C24.2353 25.9087 24.3517 26.1207 24.4387 26.3452L24.5432 26.2902Z" fill="#0984E3"/>
<path d="M8.76636 33.4149C8.8305 33.4149 8.8932 33.3959 8.94653 33.3603C8.99985 33.3246 9.04142 33.274 9.06596 33.2147C9.0905 33.1555 9.09692 33.0903 9.0844 33.0274C9.07188 32.9644 9.04099 32.9067 8.99563 32.8613C8.95028 32.816 8.89249 32.7851 8.82958 32.7726C8.76667 32.7601 8.70147 32.7665 8.64221 32.7911C8.58296 32.8156 8.53232 32.8572 8.49669 32.9105C8.46107 32.9639 8.44206 33.0266 8.44208 33.0907C8.44217 33.1767 8.47637 33.2591 8.53716 33.3199C8.59796 33.3807 8.68039 33.4149 8.76636 33.4149Z" fill="#0984E3"/>
<path d="M24.8521 24.3471C24.6018 24.2219 24.3243 24.1608 24.0445 24.1692C23.7647 24.1777 23.4913 24.2554 23.249 24.3955C23.2457 24.3974 23.2424 24.3993 23.239 24.4011L22.6654 24.713C22.9497 24.7968 23.2183 24.9265 23.4606 25.097L24.8521 24.3471Z" fill="#0984E3"/>
<path d="M5.49438 25.0996L6.63499 34.4531H11.2879L8.43612 25.0996H5.49438ZM9.93434 33.0908C9.93434 33.3218 9.86584 33.5476 9.73749 33.7397C9.60915 33.9318 9.42672 34.0815 9.21329 34.1699C8.99986 34.2583 8.76501 34.2814 8.53844 34.2364C8.31186 34.1913 8.10374 34.08 7.94039 33.9167C7.77703 33.7533 7.66579 33.5452 7.62072 33.3186C7.57565 33.0921 7.59878 32.8572 7.68719 32.6438C7.77559 32.4304 7.9253 32.2479 8.11738 32.1196C8.30947 31.9912 8.53529 31.9227 8.76631 31.9227C9.07599 31.9231 9.37289 32.0462 9.59186 32.2652C9.81084 32.4842 9.93401 32.7811 9.93434 33.0908Z" fill="#0984E3"/>
<path d="M28.7683 24.9696L24.9401 27.0348L24.6195 27.2036C24.6214 27.2446 24.6226 27.2858 24.6226 27.3273C24.6226 27.4392 24.5782 27.5465 24.4991 27.6256C24.42 27.7048 24.3127 27.7492 24.2008 27.7492C24.1945 27.7492 24.1881 27.7492 24.1817 27.7488L21.5389 27.6293C20.7694 27.5946 19.9983 27.6302 19.2352 27.7356C19.1244 27.751 19.012 27.7216 18.9228 27.6541C18.8336 27.5866 18.7749 27.4864 18.7595 27.3755C18.7442 27.2647 18.7735 27.1523 18.8411 27.0631C18.9086 26.9739 19.0088 26.9152 19.1196 26.8998C19.9336 26.7873 20.7562 26.7493 21.5771 26.7863L23.726 26.8837C23.6259 26.474 23.3913 26.1098 23.0598 25.8492C22.7283 25.5886 22.3189 25.4467 21.8973 25.4462H18.7989C18.18 25.4454 17.5692 25.3055 17.0117 25.0367L16.6922 24.882C15.9122 24.5025 15.0427 24.3455 14.1793 24.4283C13.3159 24.511 12.4921 24.8303 11.7984 25.3511L11.0402 26.0261C10.6846 26.3424 10.2674 26.5816 9.81476 26.7287L11.2869 31.5573L13.3411 30.2587C13.3475 30.2546 13.354 30.2506 13.3607 30.247C13.8355 29.9805 14.3938 29.9046 14.9225 30.0345L19.5664 30.8897C20.6593 31.085 21.7859 30.929 22.7847 30.4441L30.4428 25.186C30.2217 24.9788 29.941 24.8464 29.6405 24.8075C29.34 24.7687 29.0348 24.8254 28.7683 24.9696Z" fill="#0984E3"/>
<path d="M15.2877 0.703125C15.1758 0.703125 15.0685 0.747572 14.9893 0.826689C14.9102 0.905806 14.8658 1.01311 14.8658 1.125V2.78761H15.7095V1.125C15.7095 1.01311 15.6651 0.905806 15.586 0.826689C15.5069 0.747572 15.3995 0.703125 15.2877 0.703125Z" fill="#0984E3"/>
<path d="M27.5489 12.436C27.437 12.436 27.3297 12.4805 27.2506 12.5596C27.1715 12.6387 27.127 12.746 27.127 12.8579V14.0341H27.9708V12.9282C27.9708 12.6953 27.7818 12.436 27.5489 12.436Z" fill="#0984E3"/>
<path d="M8.13922 8.93945C8.13922 8.82757 8.09477 8.72026 8.01566 8.64114C7.93654 8.56203 7.82923 8.51758 7.71735 8.51758C7.60546 8.51758 7.49815 8.56203 7.41904 8.64114C7.33992 8.72026 7.29547 8.82757 7.29547 8.93945V9.63133H8.13922V8.93945Z" fill="#0984E3"/>
<path d="M19.7789 7.66724V21.5705H24.8995V12.1516C24.3586 12.0923 23.8356 11.9227 23.3629 11.6532C22.8902 11.3837 22.4777 11.0202 22.1511 10.5849C21.64 9.90314 21.3649 9.07345 21.3673 8.22137C21.3675 8.03596 21.3808 7.8508 21.4069 7.66724H19.7789ZM23.7627 19.486H20.8084C20.6965 19.486 20.5892 19.4415 20.5101 19.3624C20.431 19.2833 20.3865 19.176 20.3865 19.0641C20.3865 18.9522 20.431 18.8449 20.5101 18.7658C20.5892 18.6867 20.6965 18.6422 20.8084 18.6422H23.7625C23.8744 18.6422 23.9817 18.6867 24.0608 18.7658C24.1399 18.8449 24.1844 18.9522 24.1844 19.0641C24.1844 19.176 24.1399 19.2833 24.0608 19.3624C23.9817 19.4415 23.8744 19.486 23.7625 19.486H23.7627ZM23.7627 17.1278H20.8084C20.6965 17.1278 20.5892 17.0833 20.5101 17.0042C20.431 16.9251 20.3865 16.8178 20.3865 16.7059C20.3865 16.594 20.431 16.4867 20.5101 16.4076C20.5892 16.3285 20.6965 16.284 20.8084 16.284H23.7625C23.8744 16.284 23.9817 16.3285 24.0608 16.4076C24.1399 16.4867 24.1844 16.594 24.1844 16.7059C24.1844 16.8178 24.1399 16.9251 24.0608 17.0042C23.9817 17.0833 23.8744 17.1278 23.7625 17.1278H23.7627ZM24.1846 14.3478C24.1846 14.4597 24.1401 14.567 24.061 14.6461C23.9819 14.7252 23.8746 14.7696 23.7627 14.7696H20.8084C20.6965 14.7696 20.5892 14.7252 20.5101 14.6461C20.431 14.567 20.3865 14.4597 20.3865 14.3478C20.3865 14.2359 20.431 14.1286 20.5101 14.0495C20.5892 13.9703 20.6965 13.9259 20.8084 13.9259H23.7625C23.8744 13.9259 23.9817 13.9703 24.0608 14.0495C24.1399 14.1286 24.1844 14.2359 24.1844 14.3478H24.1846ZM22.4204 11.5677C22.5323 11.5677 22.6396 11.6121 22.7188 11.6912C22.7979 11.7704 22.8423 11.8777 22.8423 11.9896C22.8423 12.1014 22.7979 12.2088 22.7188 12.2879C22.6396 12.367 22.5323 12.4114 22.4204 12.4114H20.8084C20.6965 12.4114 20.5892 12.367 20.5101 12.2879C20.431 12.2088 20.3865 12.1014 20.3865 11.9896C20.3865 11.8777 20.431 11.7704 20.5101 11.6912C20.5892 11.6121 20.6965 11.5677 20.8084 11.5677H22.4204ZM21.5001 9.63142C21.5001 9.7433 21.4556 9.85061 21.3765 9.92973C21.2974 10.0088 21.1901 10.0533 21.0782 10.0533H20.8086C20.6967 10.0533 20.5894 10.0088 20.5103 9.92973C20.4312 9.85061 20.3867 9.7433 20.3867 9.63142C20.3867 9.51953 20.4312 9.41222 20.5103 9.33311C20.5894 9.25399 20.6967 9.20954 20.8086 9.20954H21.0782C21.19 9.2096 21.2973 9.25407 21.3764 9.33318C21.4554 9.41229 21.4998 9.51956 21.4998 9.63142H21.5001Z" fill="#0984E3"/>
<path d="M10.2696 11.1121L5.36786 13.5241V21.5705H10.2696V11.1121ZM9.1011 20.1493H6.61035C6.49846 20.1493 6.39116 20.1049 6.31204 20.0258C6.23292 19.9466 6.18848 19.8393 6.18848 19.7274C6.18848 19.6156 6.23292 19.5082 6.31204 19.4291C6.39116 19.35 6.49846 19.3056 6.61035 19.3056H9.1011C9.21299 19.3056 9.32029 19.35 9.39941 19.4291C9.47853 19.5082 9.52298 19.6156 9.52298 19.7274C9.52298 19.8393 9.47853 19.9466 9.39941 20.0258C9.32029 20.1049 9.21299 20.1493 9.1011 20.1493ZM9.1011 18.5349H6.61035C6.49846 18.5349 6.39116 18.4905 6.31204 18.4114C6.23292 18.3323 6.18848 18.225 6.18848 18.1131C6.18848 18.0012 6.23292 17.8939 6.31204 17.8148C6.39116 17.7356 6.49846 17.6912 6.61035 17.6912H9.1011C9.21299 17.6912 9.32029 17.7356 9.39941 17.8148C9.47853 17.8939 9.52298 18.0012 9.52298 18.1131C9.52298 18.225 9.47853 18.3323 9.39941 18.4114C9.32029 18.4905 9.21299 18.5349 9.1011 18.5349ZM9.1011 16.9206H6.61035C6.49846 16.9206 6.39116 16.8762 6.31204 16.7971C6.23292 16.718 6.18848 16.6107 6.18848 16.4988C6.18848 16.3869 6.23292 16.2796 6.31204 16.2005C6.39116 16.1213 6.49846 16.0769 6.61035 16.0769H9.1011C9.21299 16.0769 9.32029 16.1213 9.39941 16.2005C9.47853 16.2796 9.52298 16.3869 9.52298 16.4988C9.52298 16.6107 9.47853 16.718 9.39941 16.7971C9.32029 16.8762 9.21299 16.9206 9.1011 16.9206ZM9.1011 15.3063H6.61035C6.49846 15.3063 6.39116 15.2618 6.31204 15.1827C6.23292 15.1036 6.18848 14.9963 6.18848 14.8844C6.18848 14.7725 6.23292 14.6652 6.31204 14.5861C6.39116 14.507 6.49846 14.4625 6.61035 14.4625H9.1011C9.21299 14.4625 9.32029 14.507 9.39941 14.5861C9.47853 14.6652 9.52298 14.7725 9.52298 14.8844C9.52298 14.9963 9.47853 15.1036 9.39941 15.1827C9.32029 15.2618 9.21299 15.3063 9.1011 15.3063Z" fill="#0984E3"/>
<path d="M11.1133 21.5703H18.9351V5.62061H11.1133V21.5703ZM12.7335 7.48163H17.3152C17.4271 7.48163 17.5344 7.52608 17.6135 7.6052C17.6926 7.68432 17.7371 7.79162 17.7371 7.90351C17.7371 8.0154 17.6926 8.1227 17.6135 8.20182C17.5344 8.28094 17.4271 8.32538 17.3152 8.32538H12.7335C12.6216 8.32538 12.5143 8.28094 12.4352 8.20182C12.3561 8.1227 12.3116 8.0154 12.3116 7.90351C12.3116 7.79162 12.3561 7.68432 12.4352 7.6052C12.5143 7.52608 12.6216 7.48163 12.7335 7.48163ZM12.7335 9.88836H17.3152C17.4271 9.88836 17.5344 9.93281 17.6135 10.0119C17.6926 10.091 17.7371 10.1983 17.7371 10.3102C17.7371 10.4221 17.6926 10.5294 17.6135 10.6085C17.5344 10.6877 17.4271 10.7321 17.3152 10.7321H12.7335C12.6216 10.7321 12.5143 10.6877 12.4352 10.6085C12.3561 10.5294 12.3116 10.4221 12.3116 10.3102C12.3116 10.1983 12.3561 10.091 12.4352 10.0119C12.5143 9.93281 12.6216 9.88836 12.7335 9.88836ZM12.7335 12.295H17.3152C17.4271 12.295 17.5344 12.3395 17.6135 12.4186C17.6926 12.4977 17.7371 12.605 17.7371 12.7169C17.7371 12.8288 17.6926 12.9361 17.6135 13.0152C17.5344 13.0943 17.4271 13.1388 17.3152 13.1388H12.7335C12.6216 13.1388 12.5143 13.0943 12.4352 13.0152C12.3561 12.9361 12.3116 12.8288 12.3116 12.7169C12.3116 12.605 12.3561 12.4977 12.4352 12.4186C12.5143 12.3395 12.6216 12.295 12.7335 12.295ZM12.7335 14.7018H17.3152C17.4271 14.7018 17.5344 14.7463 17.6135 14.8254C17.6926 14.9045 17.7371 15.0118 17.7371 15.1237C17.7371 15.2356 17.6926 15.3429 17.6135 15.422C17.5344 15.5011 17.4271 15.5456 17.3152 15.5456H12.7335C12.6216 15.5456 12.5143 15.5011 12.4352 15.422C12.3561 15.3429 12.3116 15.2356 12.3116 15.1237C12.3116 15.0118 12.3561 14.9045 12.4352 14.8254C12.5143 14.7463 12.6216 14.7018 12.7335 14.7018ZM12.7335 17.1085H17.3152C17.4271 17.1085 17.5344 17.1529 17.6135 17.232C17.6926 17.3111 17.7371 17.4184 17.7371 17.5303C17.7371 17.6422 17.6926 17.7495 17.6135 17.8286C17.5344 17.9078 17.4271 17.9522 17.3152 17.9522H12.7335C12.6216 17.9522 12.5143 17.9078 12.4352 17.8286C12.3561 17.7495 12.3116 17.6422 12.3116 17.5303C12.3116 17.4184 12.3561 17.3111 12.4352 17.232C12.5143 17.1529 12.6216 17.1085 12.7335 17.1085ZM12.7335 19.5152H17.3152C17.4271 19.5152 17.5344 19.5596 17.6135 19.6388C17.6926 19.7179 17.7371 19.8252 17.7371 19.9371C17.7371 20.0489 17.6926 20.1563 17.6135 20.2354C17.5344 20.3145 17.4271 20.3589 17.3152 20.3589H12.7335C12.6216 20.3589 12.5143 20.3145 12.4352 20.2354C12.3561 20.1563 12.3116 20.0489 12.3116 19.9371C12.3116 19.8252 12.3561 19.7179 12.4352 19.6388C12.5143 19.5596 12.6216 19.5152 12.7335 19.5152Z" fill="#0984E3"/>
<path d="M8.54092 10.1309H6.89392V11.8328L8.54092 11.0223V10.1309Z" fill="#0984E3"/>
<path d="M29.3545 15.8364H25.743V21.5704H29.3545V15.8364ZM28.1776 20.8872H26.7679C26.656 20.8872 26.5487 20.8427 26.4696 20.7636C26.3905 20.6845 26.346 20.5772 26.346 20.4653C26.346 20.3534 26.3905 20.2461 26.4696 20.167C26.5487 20.0879 26.656 20.0434 26.7679 20.0434H28.1775C28.2894 20.0434 28.3967 20.0879 28.4758 20.167C28.5549 20.2461 28.5993 20.3534 28.5993 20.4653C28.5993 20.5772 28.5549 20.6845 28.4758 20.7636C28.3967 20.8427 28.2894 20.8872 28.1775 20.8872H28.1776ZM28.1776 19.2959H26.7679C26.656 19.2959 26.5487 19.2514 26.4696 19.1723C26.3905 19.0932 26.346 18.9859 26.346 18.874C26.346 18.7621 26.3905 18.6548 26.4696 18.5757C26.5487 18.4966 26.656 18.4521 26.7679 18.4521H28.1775C28.2894 18.4521 28.3967 18.4966 28.4758 18.5757C28.5549 18.6548 28.5993 18.7621 28.5993 18.874C28.5993 18.9859 28.5549 19.0932 28.4758 19.1723C28.3967 19.2514 28.2894 19.2959 28.1775 19.2959H28.1776ZM28.1776 17.7046H26.7679C26.656 17.7046 26.5487 17.6601 26.4696 17.581C26.3905 17.5019 26.346 17.3946 26.346 17.2827C26.346 17.1708 26.3905 17.0635 26.4696 16.9844C26.5487 16.9053 26.656 16.8608 26.7679 16.8608H28.1775C28.2894 16.8608 28.3967 16.9053 28.4758 16.9844C28.5549 17.0635 28.5993 17.1708 28.5993 17.2827C28.5993 17.3946 28.5549 17.5019 28.4758 17.581C28.3967 17.6601 28.2894 17.7046 28.1775 17.7046H28.1776Z" fill="#0984E3"/>
<path d="M25.3212 5.11084C24.7061 5.11083 24.1047 5.29324 23.5932 5.635C23.0817 5.97677 22.683 6.46255 22.4475 7.0309C22.2121 7.59925 22.1505 8.22466 22.2705 8.82802C22.3905 9.43139 22.6868 9.98562 23.1218 10.4206C23.5568 10.8556 24.111 11.1519 24.7143 11.2719C25.3177 11.3919 25.9431 11.3303 26.5115 11.0949C27.0798 10.8595 27.5656 10.4608 27.9074 9.94931C28.2492 9.43781 28.4316 8.83644 28.4316 8.22125C28.4307 7.39662 28.1027 6.60602 27.5196 6.02291C26.9365 5.4398 26.1459 5.11179 25.3212 5.11084ZM25.3212 7.78032C25.6176 7.78008 25.9045 7.88458 26.1313 8.07537C26.3581 8.26616 26.5101 8.53095 26.5606 8.82298C26.6111 9.11501 26.5567 9.41549 26.4071 9.67132C26.2576 9.92716 26.0224 10.1219 25.7431 10.2212V10.3711C25.7431 10.4829 25.6987 10.5903 25.6196 10.6694C25.5404 10.7485 25.4331 10.7929 25.3212 10.7929C25.2094 10.7929 25.1021 10.7485 25.0229 10.6694C24.9438 10.5903 24.8994 10.4829 24.8994 10.3711V10.2214C24.6552 10.1342 24.4438 9.97383 24.2942 9.76204C24.1446 9.55025 24.0641 9.29743 24.0636 9.03814C24.0636 8.92626 24.1081 8.81895 24.1872 8.73983C24.2663 8.66072 24.3736 8.61627 24.4855 8.61627C24.5974 8.61627 24.7047 8.66072 24.7838 8.73983C24.8629 8.81895 24.9074 8.92626 24.9074 9.03814C24.9076 9.14678 24.9504 9.251 25.0267 9.32834C25.103 9.40569 25.2066 9.44997 25.3152 9.45165C25.3172 9.45165 25.3193 9.45165 25.3213 9.45165C25.3234 9.45165 25.3254 9.45165 25.3274 9.45165C25.4364 9.44968 25.5401 9.40481 25.6162 9.32679C25.6922 9.24877 25.7344 9.1439 25.7336 9.03494C25.7328 8.92599 25.6891 8.82175 25.6119 8.74487C25.5347 8.66798 25.4303 8.62465 25.3213 8.62428C25.025 8.62448 24.7381 8.51996 24.5114 8.32918C24.2846 8.13839 24.1326 7.87363 24.0822 7.58163C24.0317 7.28964 24.086 6.9892 24.2356 6.73338C24.3851 6.47756 24.6202 6.28281 24.8994 6.18353V6.07166C24.8994 5.95977 24.9439 5.85247 25.023 5.77335C25.1021 5.69423 25.2094 5.64978 25.3213 5.64978C25.4332 5.64978 25.5405 5.69423 25.6196 5.77335C25.6987 5.85247 25.7432 5.95977 25.7432 6.07166V6.18332C25.9874 6.27043 26.1988 6.43085 26.3484 6.64264C26.4979 6.85442 26.5785 7.10724 26.5789 7.36653C26.5789 7.47842 26.5345 7.58573 26.4554 7.66485C26.3762 7.74396 26.2689 7.78841 26.1571 7.78841C26.0452 7.78841 25.9379 7.74396 25.8587 7.66485C25.7796 7.58573 25.7352 7.47842 25.7352 7.36653C25.7352 7.28468 25.7109 7.20466 25.6655 7.13659C25.62 7.06852 25.5554 7.01546 25.4797 6.98413C25.4041 6.95279 25.3209 6.94459 25.2406 6.96055C25.1603 6.97651 25.0866 7.01592 25.0287 7.0738C24.9708 7.13167 24.9314 7.20542 24.9154 7.2857C24.8994 7.36598 24.9076 7.4492 24.939 7.52483C24.9703 7.60045 25.0233 7.66509 25.0914 7.71057C25.1594 7.75605 25.2395 7.78032 25.3213 7.78032H25.3212Z" fill="#0984E3"/>
<path d="M17.7143 3.24268H12.3341V4.77676H17.7143V3.24268Z" fill="#0984E3"/>
<path d="M28.2181 14.373H26.8794V14.9926H28.2181V14.373Z" fill="#0984E3"/>
</svg>
