<svg width="30" height="30" viewBox="0 0 30 30" fill="none" xmlns="http://www.w3.org/2000/svg">
<g clip-path="url(#clip0_1_711)">
<path d="M15.8806 0C13.9417 0 12.3064 1.63529 12.3064 3.57421C12.3064 5.51314 13.9417 7.14843 15.8806 7.14843C17.8195 7.14843 19.3962 5.51314 19.3962 3.57421C19.3962 1.63529 17.8195 0 15.8806 0Z" fill="#0984E3"/>
<path d="M19.7824 7.14844C18.8165 8.21947 17.4331 8.90625 15.8806 8.90625C14.3281 8.90625 12.886 8.21947 11.9201 7.14844C11.0768 8.08353 10.5486 9.30855 10.5486 10.6641V11.543C10.5486 12.0288 10.9417 12.4219 11.4275 12.4219H20.2751C20.7609 12.4219 21.154 12.0288 21.154 11.543V10.6641C21.154 9.30855 20.6257 8.08353 19.7824 7.14844Z" fill="#0984E3"/>
<path d="M8.49291 26.9766L4.01396 17.9969C3.58148 17.1297 2.5289 16.7761 1.66072 17.2063L0.490081 17.7862C0.0542029 18.0023 -0.12316 18.5321 0.0943981 18.9672L5.36782 29.514C5.58467 29.949 6.11219 30.1221 6.54456 29.9088L7.70014 29.3363C8.57172 28.9046 8.92697 27.8471 8.49291 26.9766Z" fill="#0984E3"/>
<path d="M29.281 14.5137C28.5602 13.9864 27.5583 14.0918 26.9607 14.7422L22.156 20.6485C21.822 21 21.1892 21.211 20.8552 21.211H16.7595C16.2672 21.211 15.8806 20.8243 15.8806 20.3321C15.8806 19.8398 16.2672 19.4532 16.7595 19.4532C17.9366 19.4532 19.2399 19.4532 20.2751 19.4532C21.2419 19.4532 22.0329 18.6621 22.0329 17.6953C22.0329 16.7285 21.2419 15.9375 20.2751 15.9375C16.1474 15.9375 20.0847 15.9375 15.6696 15.9375C15.2316 15.9375 15.0132 15.6597 14.6677 15.3574C13.3078 14.1337 11.2722 13.5441 9.21151 14.0218C8.06729 14.287 7.29567 14.7492 6.5131 15.369L6.48702 15.3478L5.21577 16.4666L10.2117 26.4844H11.6911H20.2751C21.9274 26.4844 23.5095 25.6934 24.4939 24.375L29.6501 16.9922C30.2302 16.2187 30.072 15.0938 29.281 14.5137Z" fill="#0984E3"/>
</g>
<defs>
<clipPath id="clip0_1_711">
<rect width="30" height="30" fill="white"/>
</clipPath>
</defs>
</svg>
